<?xml version="1.0" encoding="iso-8859-1"?>
<!-- Uploaded to: SVG Repo, www.svgrepo.com, Generator: SVG Repo Mixer Tools -->
<svg fill="#000000" height="800px" width="800px" version="1.1" id="Layer_1" xmlns="http://www.w3.org/2000/svg" xmlns:xlink="http://www.w3.org/1999/xlink" 
	 viewBox="0 0 512 512" xml:space="preserve">
<g>
	<g>
		<path d="M463.244,0H396.77c-40.29,0-73.068,32.778-73.068,73.068v277.007c0,8.706-7.083,15.79-15.789,15.79h-0.608v-70.38v-77.975
			c0-4.195-3.401-7.595-7.595-7.595h-29.724H100.058c-4.195,0-7.595,3.401-7.595,7.595v70.38H65.226
			c-4.195,0-7.595,3.401-7.595,7.595v70.38h-8.873c-17.589,0-31.899,14.31-31.899,31.899c0,16.742,12.966,30.502,29.383,31.791
			c-8.385,8.762-13.553,20.626-13.553,33.682c0,26.889,21.876,48.763,48.763,48.763s48.763-21.876,48.763-48.764
			c0-13.002-5.125-24.823-13.448-33.573h131.612c-8.323,8.752-13.448,20.572-13.448,33.573c0,26.889,21.875,48.764,48.763,48.764
			c26.889,0,48.763-21.876,48.763-48.764c0-13.351-5.398-25.463-14.121-34.278c38.974-5.124,69.164-38.533,69.164-78.884v-137.45
			h61.927c4.195,0,7.595-3.401,7.595-7.595v-23.278V82.477V63.799h6.22c17.589,0,31.899-14.31,31.899-31.899
			C495.142,14.31,480.833,0,463.244,0z M277.581,225.104h14.534v62.785h-14.534V225.104z M292.116,303.079v62.785h-14.534v-62.785
			H292.116z M107.653,225.105h154.738v62.785H107.653V225.105z M72.821,303.079h27.237h162.333v62.785H72.821V303.079z
			 M81.453,496.81c-18.512,0-33.573-15.062-33.573-33.573s15.062-33.573,33.573-33.573c18.512,0,33.573,15.061,33.573,33.573
			S99.964,496.81,81.453,496.81z M283.694,496.81c-18.513,0-33.573-15.062-33.573-33.573c0-18.512,15.061-33.573,33.573-33.573
			c18.513,0,33.573,15.062,33.573,33.573S302.206,496.81,283.694,496.81z M372.311,73.068v277.007h0
			c0,35.509-28.889,64.398-64.397,64.398H48.757c-9.213,0-16.709-7.496-16.709-16.709c0-9.213,7.496-16.709,16.709-16.709h16.468
			h204.762h29.724h8.203c17.082,0,30.979-13.898,30.979-30.98V73.068c0-31.914,25.963-57.878,57.878-57.878h1.245v33.418h-1.245
			C383.284,48.609,372.311,59.581,372.311,73.068z M441.834,197.435h-54.332v-8.088h54.332V197.435z M441.834,174.157h-54.332
			V73.068c0-5.111,4.158-9.269,9.269-9.269h45.063v18.678h0V174.157z M463.244,48.609h-50.037V15.19h50.037
			c9.213,0,16.709,7.496,16.709,16.709C479.953,41.113,472.457,48.609,463.244,48.609z"/>
	</g>
</g>
<g>
	<g>
		<path d="M283.694,439.414c-13.135,0-23.821,10.687-23.821,23.822s10.687,23.821,23.821,23.821
			c13.135,0,23.822-10.687,23.822-23.821C307.516,450.101,296.829,439.414,283.694,439.414z M283.694,471.868
			c-4.76,0-8.631-3.872-8.631-8.631c0-4.76,3.872-8.632,8.631-8.632c4.76,0,8.632,3.872,8.632,8.632
			S288.453,471.868,283.694,471.868z"/>
	</g>
</g>
<g>
	<g>
		<path d="M81.452,439.414c-13.134,0-23.821,10.687-23.821,23.822s10.687,23.821,23.821,23.821
			c13.135,0,23.821-10.687,23.821-23.821C105.273,450.101,94.586,439.414,81.452,439.414z M81.452,471.868
			c-4.759,0-8.631-3.872-8.631-8.631c0-4.76,3.872-8.632,8.631-8.632c4.76,0,8.631,3.872,8.631,8.632S86.21,471.868,81.452,471.868z
			"/>
	</g>
</g>
<g>
	<g>
		<path d="M217.228,314.5h-98.06c-4.195,0-7.595,3.401-7.595,7.595v22.352c0,4.194,3.401,7.595,7.595,7.595h98.06
			c4.195,0,7.595-3.401,7.595-7.595v-22.352C224.823,317.901,221.422,314.5,217.228,314.5z M209.633,336.852h-82.87v-7.162h82.87
			V336.852z"/>
	</g>
</g>
<g>
	<g>
		<path d="M223.718,236.93h-77.391c-4.195,0-7.595,3.401-7.595,7.595v22.352c0,4.195,3.401,7.595,7.595,7.595h77.391
			c4.195,0,7.595-3.401,7.595-7.595v-22.352C231.313,240.331,227.912,236.93,223.718,236.93z M216.123,259.282h-62.201v-7.162
			h62.201V259.282z"/>
	</g>
</g>
</svg>